<?xml version="1.0" encoding="UTF-8"?>
<svg id="Layer_1" data-name="Layer 1" xmlns="http://www.w3.org/2000/svg" viewBox="0 0 512 512">
  <defs>
    <style>
      .cls-1 {
        fill: #fff;
      }
    </style>
  </defs>
  <rect width="512" height="512"/>
  <path class="cls-1" d="M256,39.9c-116.4,0-210.76,76.13-210.76,170.04,0,39.91,17.05,76.6,45.58,105.6.95.96,1.27,2.38.82,3.65l-50.5,142.2c-1.12,3.15,2.36,5.94,5.19,4.17l147.04-92.13c.8-.5,1.76-.66,2.68-.44,19,4.54,39.12,6.99,59.95,6.99,116.4,0,210.76-76.13,210.76-170.04S372.4,39.9,256,39.9ZM253.9,333.93c-17.98,0-35.25-2.44-51.32-6.91-.95-.27-1.97-.12-2.81.4l-89.18,55.88c-2.83,1.77-6.31-1.02-5.19-4.17l30.39-85.58c.47-1.32.1-2.79-.92-3.75-22.87-21.61-36.66-49.53-36.66-80.03,0-68.57,69.71-124.16,155.7-124.16s155.7,55.59,155.7,124.16-69.71,124.16-155.7,124.16Z"/>
  <path class="cls-1" d="M331.17,169.87h-48.69v-36.88c0-1.48-1.2-2.69-2.69-2.69h-51.79c-1.48,0-2.69,1.2-2.69,2.69v36.88h-48.69c-1.48,0-2.69,1.2-2.69,2.69v51.79c0,1.48,1.2,2.69,2.69,2.69h48.69v60.51c0,1.48,1.2,2.69,2.69,2.69h51.79c1.48,0,2.69-1.2,2.69-2.69v-60.51h48.69c1.48,0,2.69-1.2,2.69-2.69v-51.79c0-1.48-1.2-2.69-2.69-2.69Z"/>
</svg>